<svg xmlns="http://www.w3.org/2000/svg" width="24" height="24" fill="none" viewBox="0 0 24 24">
  <path fill="#000" fill-opacity=".9" d="M17.5 10.5a.5.5 0 0 1 .5.5v.167c0 3.11-2.434 5.65-5.5 5.822V20h3a.5.5 0 0 1 0 1h-7a.5.5 0 0 1 0-1h3v-3.01A5.832 5.832 0 0 1 6 11.166V11a.5.5 0 0 1 1 0v.167A4.833 4.833 0 0 0 11.833 16h.334A4.833 4.833 0 0 0 17 11.167V11a.5.5 0 0 1 .5-.5ZM12 3a3 3 0 0 1 3 3v5a3 3 0 0 1-3 3l-.154-.004a3 3 0 0 1-2.842-2.842L9 11V6a3 3 0 0 1 3-3Zm0 1a2 2 0 0 0-2 2v5a2 2 0 1 0 4 0V6a2 2 0 0 0-2-2Z"/>
</svg>
