<svg xmlns="http://www.w3.org/2000/svg" width="24" height="24" fill="none" viewBox="0 0 24 24">
  <path fill="#000" fill-opacity=".9" d="M19 5a2 2 0 0 1 2 2v10a2 2 0 0 1-1.796 1.99L19 19H5l-.204-.01a2 2 0 0 1-1.785-1.786L3 17V7a2 2 0 0 1 2-2h14ZM5 6a1 1 0 0 0-1 1v10a1 1 0 0 0 1 1h14a1 1 0 0 0 1-1V7a1 1 0 0 0-1-1H5Zm9.963 7.953c.19 0 .354.068.492.204.14.136.211.3.211.492a.66.66 0 0 1-.099.355.738.738 0 0 1-.255.256.674.674 0 0 1-.35.092.682.682 0 0 1-.494-.204.675.675 0 0 1-.208-.499.67.67 0 0 1 .208-.492.683.683 0 0 1 .495-.204Zm-2.27 1.33h-1.266l-.542-1.615H8.424l-.541 1.614H6.617l2.305-6.545h1.464l2.306 6.545Zm2.42-6.636c.407 0 .766.072 1.075.214.31.143.553.347.725.61.175.263.262.574.262.934 0 .243-.04.46-.118.653a1.585 1.585 0 0 1-.33.51 2.413 2.413 0 0 1-.507.4 2.178 2.178 0 0 0-.426.333c-.108.115-.19.25-.242.405a1.877 1.877 0 0 0-.08.57v.082h-1.065v-.083c.002-.385.038-.693.109-.92.072-.228.174-.412.306-.55.132-.14.294-.27.484-.387.13-.08.245-.17.347-.265.105-.098.187-.207.246-.326a.912.912 0 0 0 .09-.406.798.798 0 0 0-.118-.438.804.804 0 0 0-.32-.288.957.957 0 0 0-.444-.101.98.98 0 0 0-.431.098.84.84 0 0 0-.336.294.97.97 0 0 0-.147.496h-1.137c.01-.404.108-.744.294-1.016.187-.273.434-.478.74-.614.31-.137.65-.204 1.023-.205Zm-6.37 4.069h1.822l-.886-2.637h-.051l-.885 2.637Z"/>
</svg>
