<svg xmlns="http://www.w3.org/2000/svg" width="24" height="24" fill="none" viewBox="0 0 24 24">
  <path fill="#000" fill-opacity=".9" d="M9.682 8.218a.83.83 0 0 1 .78.547l2.373 6.533a.523.523 0 1 1-.984.352l-.624-1.781H8.134l-.624 1.78a.524.524 0 1 1-.985-.352L8.9 8.765a.83.83 0 0 1 .78-.546Zm0 1.323a.043.043 0 0 0-.04.028l-1.188 3.387h2.454L9.723 9.57a.044.044 0 0 0-.041-.028Zm5.91-2.159c.343 0 .642.061.898.183.258.121.46.288.604.5.144.211.216.45.216.716 0 .21-.042.405-.128.585-.084.18-.216.364-.396.554a8.5 8.5 0 0 1-.695.635l-.927.799a.024.024 0 0 0-.008.018c0 .012.01.023.024.023h1.895a.358.358 0 0 1 0 .714h-2.752a.436.436 0 0 1-.287-.765l1.64-1.431a8.32 8.32 0 0 0 .434-.407c.117-.119.205-.234.266-.345a.765.765 0 0 0 .09-.366.611.611 0 0 0-.257-.52c-.17-.13-.38-.193-.63-.193-.267 0-.481.07-.644.209a.702.702 0 0 0-.132.15c-.127.198-.3.404-.534.404-.234 0-.433-.194-.368-.419a1.28 1.28 0 0 1 .435-.641c.33-.269.748-.403 1.257-.403Z"/>
</svg>
